HIERARCHY
ROOT Hips
{
	OFFSET 52.003300 -5.574649 56.171600
	CHANNELS 6 Xposition Yposition Zposition Xrotation Yrotation Zrotation
	JOINT spine
	{
		OFFSET 0.000000 -0.367607 6.392601
		CHANNELS 3 Xrotation Yrotation Zrotation
		JOINT spine1
		{
			OFFSET 0.000000 -0.000002 9.176109
			CHANNELS 3 Xrotation Yrotation Zrotation
			JOINT spine2
			{
				OFFSET 0.000000 -0.000001 8.792381
				CHANNELS 3 Xrotation Yrotation Zrotation
				JOINT Neck
				{
					OFFSET 0.000000 -1.076243 22.573700
					CHANNELS 3 Xrotation Yrotation Zrotation
					JOINT Head
					{
						OFFSET 0.000000 -0.000001 6.820107
						CHANNELS 3 Xrotation Yrotation Zrotation
						End Site
						{
							OFFSET 0.000000 5.444258 16.508499
						}
					}
				}
				JOINT RightShoulder
				{
					OFFSET -3.702209 0.515507 9.495087
					CHANNELS 3 Xrotation Yrotation Zrotation
					JOINT RightArm
					{
						OFFSET 0.000000 -0.000002 12.453697
						CHANNELS 3 Xrotation Yrotation Zrotation
						JOINT RightArmRoll
						{
							OFFSET 0.000000 -0.000001 6.286850
							CHANNELS 3 Xrotation Yrotation Zrotation
							JOINT RightForeArm
							{
								OFFSET 0.000000 -0.000003 18.311401
								CHANNELS 3 Xrotation Yrotation Zrotation
								JOINT RightForeArmRoll
								{
									OFFSET 0.000000 -0.000001 7.054825
									CHANNELS 3 Xrotation Yrotation Zrotation
									JOINT RightHand
									{
										OFFSET 0.000000 -0.000002 14.157501
										CHANNELS 3 Xrotation Yrotation Zrotation
										End Site
										{
											OFFSET 0.000000 0.000000 0.100006
										}
									}
								}
							}
						}
					}
				}
				JOINT LeftShoulder
				{
					OFFSET 3.702209 0.515507 9.495087
					CHANNELS 3 Xrotation Yrotation Zrotation
					JOINT LeftArm
					{
						OFFSET 0.000000 -0.000002 12.453697
						CHANNELS 3 Xrotation Yrotation Zrotation
						JOINT LeftArmRoll
						{
							OFFSET 0.000000 -0.000001 6.286858
							CHANNELS 3 Xrotation Yrotation Zrotation
							JOINT LeftForeArm
							{
								OFFSET 0.000000 -0.000003 18.311401
								CHANNELS 3 Xrotation Yrotation Zrotation
								JOINT LeftForeArmRoll
								{
									OFFSET 0.000000 -0.000001 7.054832
									CHANNELS 3 Xrotation Yrotation Zrotation
									JOINT LeftHand
									{
										OFFSET 0.000000 -0.000002 14.157501
										CHANNELS 3 Xrotation Yrotation Zrotation
										End Site
										{
											OFFSET 0.000000 0.000000 0.100006
										}
									}
								}
							}
						}
					}
				}
			}
		}
	}
	JOINT RightUpLeg
	{
		OFFSET -5.666161 0.871610 -1.039028
		CHANNELS 3 Xrotation Yrotation Zrotation
		JOINT RightUpLegRoll
		{
			OFFSET 0.000000 -0.000003 16.600498
			CHANNELS 3 Xrotation Yrotation Zrotation
			JOINT RightLeg
			{
				OFFSET 0.000000 0.000004 -20.557198
				CHANNELS 3 Xrotation Yrotation Zrotation
				JOINT RightLegRoll
				{
					OFFSET 0.000000 -0.000004 20.624397
					CHANNELS 3 Xrotation Yrotation Zrotation
					JOINT RightFoot
					{
						OFFSET 0.000000 -0.000002 17.166405
						CHANNELS 3 Xrotation Yrotation Zrotation
						JOINT RightToeBase
						{
							OFFSET 0.000000 -0.000002 14.350197
							CHANNELS 3 Xrotation Yrotation Zrotation
							End Site
							{
								OFFSET 0.006081 0.801059 6.949707
							}
						}
					}
				}
			}
		}
	}
	JOINT LeftUpLeg
	{
		OFFSET 5.666161 0.871610 -1.039028
		CHANNELS 3 Xrotation Yrotation Zrotation
		JOINT LeftUpLegRoll
		{
			OFFSET 0.000000 -0.000003 16.600597
			CHANNELS 3 Xrotation Yrotation Zrotation
			JOINT LeftLeg
			{
				OFFSET 0.000000 -0.000003 20.557098
				CHANNELS 3 Xrotation Yrotation Zrotation
				JOINT LeftLegRoll
				{
					OFFSET 0.000000 -0.000003 20.815102
					CHANNELS 3 Xrotation Yrotation Zrotation
					JOINT LeftFoot
					{
						OFFSET 0.000000 -0.000002 16.975700
						CHANNELS 3 Xrotation Yrotation Zrotation
						JOINT LeftToeBase
						{
							OFFSET 0.000000 -0.000002 14.350204
							CHANNELS 3 Xrotation Yrotation Zrotation
							End Site
							{
								OFFSET -0.027260 0.801059 6.949707
							}
						}
					}
				}
			}
		}
	}
}
MOTION
Frames: 13
Frame Time: 0.041667
52.031898 -5.228518 57.705902 15.971105 -1.867836 3.760603 2.104904 0.544733 -0.948551 8.221915 1.040497 -1.920726 9.866729 1.017419 -1.933050 -2.243746 -4.345808 0.291602 -2.633815 2.328420 1.145021 3.892447 -52.308994 5.608720 -48.125086 -123.832504 -79.883932 -0.000004 0.000001 -0.000003 87.944409 1.518057 -5.265566 -0.000006 0.000002 -3.000001 -5.000217 -7.998812 0.000179 -4.572066 41.295040 3.487537 -41.660254 128.057892 66.842772 -0.000001 0.000006 0.000008 80.738020 2.561575 3.193228 -0.000006 -0.000018 3.000013 -5.000196 7.998735 -0.000192 -94.996300 -172.572816 -0.547891 179.999991 -0.000005 -0.751002 107.915602 0.148579 -2.950417 0.000002 0.000002 1.336580 66.811353 7.021864 1.958886 25.456959 -7.355617 0.000002 -94.038734 177.639888 -0.090371 -0.000004 -0.000004 -0.840164 -70.927389 0.320208 2.633628 -0.000003 0.000002 -1.492220 64.974142 -7.192926 -1.679734 25.457515 7.354848 -0.000887 
52.044098 -5.202030 57.705803 15.817788 -1.885866 3.797096 2.114763 0.545447 -0.955626 8.241719 1.042068 -1.934940 9.886536 1.018825 -1.947287 -2.184657 -4.386162 0.281991 -2.605775 2.364715 1.139429 3.801562 -52.335471 5.494501 -48.079494 -123.927990 -79.754452 -0.000002 0.000000 -0.000002 87.771011 1.461465 -5.181565 -0.000006 0.000004 -3.000003 -5.000217 -7.998811 0.000177 -4.554748 41.267935 3.461605 -41.583677 128.083874 66.726782 -0.000001 0.000004 0.000012 80.644733 2.585117 3.162054 -0.000006 -0.000017 3.000008 -5.000195 7.998734 -0.000192 -94.860413 -172.489802 -0.558887 179.999991 -0.000005 -0.752996 107.945293 0.150666 -2.952794 0.000002 0.000002 1.336670 66.818716 7.022675 1.957083 25.456962 -7.355615 0.000000 -93.888149 177.687836 -0.097102 -0.000003 -0.000004 -0.842273 -70.823652 0.330975 2.637089 -0.000003 0.000001 -1.489970 64.979373 -7.193350 -1.677882 25.457514 7.354848 -0.000888 
52.057594 -5.177890 57.731796 15.666974 -1.904338 3.832957 2.123861 0.546236 -0.962035 8.259980 1.043821 -1.947824 9.904782 1.020424 -1.960180 -2.126143 -4.428281 0.270811 -2.575112 2.402204 1.132546 3.705153 -52.361641 5.373734 -48.032315 -124.022466 -79.626024 -0.000003 -0.000000 -0.000002 87.595161 1.404422 -5.096923 -0.000006 0.000005 -3.000000 -5.000220 -7.998812 0.000179 -4.530704 41.240293 3.426719 -41.506797 128.109760 66.607199 -0.000001 0.000004 0.000012 80.546952 2.608924 3.129945 -0.000006 -0.000018 3.000010 -5.000199 7.998734 -0.000189 -94.726220 -172.407403 -0.569291 179.999991 -0.000005 -0.753993 107.973475 0.152130 -2.956054 0.000003 0.000002 1.336730 66.825860 7.023460 1.955489 25.456959 -7.355616 0.000001 -93.739149 177.734896 -0.102950 -0.000005 -0.000004 -0.844324 -70.722319 0.341993 2.640477 -0.000004 0.000002 -1.487731 64.984366 -7.193696 -1.676330 25.457512 7.354848 -0.000888 
52.069099 -5.145329 57.735802 15.519160 -1.923199 3.867636 2.132007 0.547139 -0.967572 8.276338 1.045827 -1.958960 9.921144 1.022284 -1.971346 -2.068329 -4.472565 0.257834 -2.541637 2.441199 1.124219 3.602582 -52.388415 5.245474 -47.982192 -124.116490 -79.497733 -0.000003 -0.000000 -0.000003 87.418300 1.347267 -5.012442 -0.000003 0.000005 -3.000000 -5.000221 -7.998808 0.000179 -4.498979 41.212849 3.381728 -41.431005 128.135018 66.484932 -0.000002 0.000005 0.000009 80.444834 2.632834 3.096985 -0.000008 -0.000015 3.000011 -5.000199 7.998733 -0.000191 -94.594766 -172.326615 -0.577901 179.999991 -0.000005 -0.756002 107.999675 0.152651 -2.960189 0.000003 0.000002 1.336750 66.832445 7.024146 1.954109 25.456960 -7.355614 0.000001 -93.592737 177.780453 -0.109182 -0.000003 -0.000003 -0.846288 -70.624402 0.353315 2.643834 -0.000003 0.000002 -1.485520 64.989250 -7.193985 -1.674973 25.457512 7.354847 -0.000887 
52.072296 -5.085970 57.723595 15.375251 -1.942430 3.900633 2.139046 0.548190 -0.972039 8.290498 1.048134 -1.967959 9.935290 1.024495 -1.980373 -2.011318 -4.519416 0.242839 -2.505128 2.481999 1.114285 3.493179 -52.416811 5.108751 -47.933387 -124.207291 -79.375636 -0.000002 0.000000 -0.000005 87.241480 1.290605 -4.928627 -0.000005 0.000006 -3.000000 -5.000218 -7.998809 0.000180 -4.458661 41.186119 3.325478 -41.357058 128.160017 66.360144 -0.000000 0.000005 0.000010 80.338543 2.656630 3.063160 -0.000006 -0.000017 3.000010 -5.000197 7.998734 -0.000191 -94.467322 -172.248095 -0.586528 179.999991 -0.000005 -0.757996 108.023273 0.152845 -2.963243 0.000002 0.000002 1.336730 66.838490 7.024770 1.952949 25.456960 -7.355615 0.000001 -93.450191 177.823770 -0.114450 -0.000004 -0.000005 -0.848134 -70.530685 0.364988 2.647174 -0.000003 0.000001 -1.483360 64.994072 -7.194103 -1.673980 25.457519 7.354848 -0.000888 
52.082699 -5.058949 57.727802 15.235944 -1.961969 3.931417 2.144820 0.549426 -0.975233 8.302094 1.050824 -1.974419 9.946884 1.027109 -1.986866 -1.955255 -4.569210 0.225601 -2.465365 2.524913 1.102604 3.376293 -52.447817 4.962589 -47.884759 -124.295550 -79.259031 -0.000001 -0.000000 -0.000001 87.066067 1.234836 -4.846075 -0.000005 0.000007 -2.999999 -5.000222 -7.998808 0.000179 -4.408791 41.160749 3.256807 -41.287192 128.183444 66.234714 -0.000001 0.000006 0.000009 80.228037 2.680153 3.028650 -0.000005 -0.000018 3.000010 -5.000199 7.998733 -0.000193 -94.345000 -172.172745 -0.593797 179.999991 -0.000005 -0.759006 108.043675 0.152704 -2.966255 0.000002 0.000002 1.336670 66.843680 7.025299 1.952128 25.456957 -7.355614 0.000001 -93.312849 177.864055 -0.119524 -0.000003 -0.000004 -0.849833 -70.442391 0.377064 2.650533 -0.000002 0.000002 -1.481260 64.998799 -7.194203 -1.673292 25.457517 7.354848 -0.000887 
52.110199 -5.035240 57.724602 15.101844 -1.981771 3.959469 2.149160 0.550883 -0.976949 8.310807 1.053967 -1.977941 9.955600 1.030204 -1.990429 -1.900237 -4.622357 0.205901 -2.422139 2.570234 1.088999 3.251218 -52.482238 4.805985 -47.839171 -124.379070 -79.152180 -0.000004 0.000000 -0.000004 86.893229 1.180522 -4.765184 -0.000006 0.000006 -3.000001 -5.000217 -7.998811 0.000180 -4.348465 41.137458 3.174570 -41.221650 128.205396 66.108267 0.000000 0.000005 0.000007 80.113454 2.703225 2.993548 -0.000008 -0.000018 3.000009 -5.000200 7.998737 -0.000189 -94.228989 -172.101465 -0.601390 179.999991 -0.000005 -0.761001 108.060286 0.152220 -2.968195 0.000002 0.000002 1.336590 66.847888 7.025720 1.951643 25.456957 -7.355616 0.000000 -93.181730 177.900719 -0.124591 -0.000004 -0.000004 -0.851354 -70.360306 0.389601 2.653965 -0.000002 0.000002 -1.479260 65.003484 -7.194135 -1.672967 25.457512 7.354846 -0.000888 
52.116695 -5.001339 57.728905 14.973747 -2.001782 3.984287 2.151900 0.552593 -0.976989 8.316315 1.057633 -1.978130 9.961107 1.033870 -1.990655 -1.846399 -4.679240 0.183513 -2.375231 2.618282 1.073312 3.117243 -52.521143 4.637899 -47.797756 -124.457235 -79.057295 -0.000003 0.000000 -0.000003 86.724326 1.128128 -4.686843 -0.000007 0.000003 -3.000001 -5.000218 -7.998810 0.000180 -4.276726 41.116636 3.077601 -41.162190 128.225546 65.982045 -0.000001 0.000004 0.000014 79.994882 2.725690 2.957833 -0.000006 -0.000015 3.000009 -5.000198 7.998733 -0.000191 -94.120485 -172.034884 -0.607298 179.999991 -0.000005 -0.761998 108.072581 0.151388 -2.970073 0.000002 0.000002 1.336480 66.850914 7.026053 1.951418 25.456957 -7.355615 0.000001 -93.058104 177.932999 -0.128023 -0.000004 -0.000004 -0.852668 -70.285549 0.402638 2.657488 -0.000003 0.000002 -1.477350 65.008340 -7.193970 -1.673012 25.457515 7.354848 -0.000887 
52.135696 -4.980532 57.720600 14.853558 -2.021864 4.006824 2.152531 0.554495 -0.975342 8.317598 1.061707 -1.974950 9.962388 1.037983 -1.987522 -1.793016 -4.740757 0.157850 -2.323279 2.669607 1.055030 2.971570 -52.562397 4.455263 -47.754313 -124.531752 -78.967854 -0.000002 -0.000001 -0.000002 86.555162 1.076719 -4.609121 -0.000008 0.000005 -3.000002 -5.000217 -7.998807 0.000177 -4.190753 41.095599 2.961824 -41.103723 128.246118 65.848126 -0.000001 0.000005 0.000011 79.867376 2.747685 2.920441 -0.000005 -0.000017 3.000010 -5.000201 7.998738 -0.000190 -94.020696 -171.971760 -0.613668 179.999991 -0.000005 -0.762996 108.080811 0.149284 -2.971744 0.000003 0.000002 1.336300 66.852963 7.026236 1.951725 25.456957 -7.355616 0.000001 -92.942933 177.962027 -0.131347 -0.000003 -0.000004 -0.853704 -70.216011 0.416782 2.661239 -0.000002 0.000002 -1.475490 65.013149 -7.193596 -1.673710 25.457517 7.354847 -0.000886 
52.148697 -4.947438 57.721195 14.741775 -2.041969 4.028411 2.150872 0.556497 -0.972238 8.314311 1.066039 -1.968831 9.959105 1.042386 -1.981463 -1.739443 -4.807133 0.128747 -2.265551 2.724263 1.033940 2.812838 -52.602873 4.256898 -47.701621 -124.606324 -78.875018 -0.000001 0.000001 -0.000002 86.381471 1.024936 -4.530323 -0.000007 0.000001 -3.000001 -5.000217 -7.998811 0.000179 -4.089566 41.071341 2.825611 -41.041688 128.269669 65.700300 -0.000001 0.000004 0.000010 79.727337 2.769607 2.880298 -0.000004 -0.000016 3.000010 -5.000201 7.998734 -0.000190 -93.929363 -171.909742 -0.619881 179.999991 -0.000005 -0.764006 108.085633 0.145906 -2.973221 0.000002 0.000002 1.336040 66.854342 7.026313 1.952454 25.456959 -7.355614 0.000000 -92.835467 177.989430 -0.134037 -0.000004 -0.000004 -0.854445 -70.149424 0.432399 2.665288 -0.000003 0.000002 -1.473580 65.017909 -7.193093 -1.674887 25.457515 7.354848 -0.000888 
52.146797 -4.932791 57.702000 14.637287 -2.062142 4.049039 2.147262 0.558599 -0.967828 8.307079 1.070631 -1.960103 9.951889 1.047078 -1.972780 -1.685875 -4.877728 0.096622 -2.202723 2.781766 1.010325 2.642646 -52.642901 4.044724 -47.642530 -124.679912 -78.781089 -0.000002 -0.000000 0.000000 86.203899 0.972808 -4.450509 -0.000006 0.000006 -3.000000 -5.000218 -7.998806 0.000180 -3.975028 41.044444 2.671510 -40.977549 128.294530 65.541758 0.000000 0.000005 0.000008 79.576560 2.791602 2.837984 -0.000004 -0.000015 3.000012 -5.000200 7.998739 -0.000189 -93.844982 -171.849035 -0.626357 179.999991 -0.000005 -0.765003 108.087470 0.140644 -2.976389 0.000002 0.000002 1.335700 66.855080 7.026315 1.953707 25.456957 -7.355615 0.000001 -92.734476 178.015275 -0.135621 -0.000004 -0.000004 -0.854941 -70.085657 0.449219 2.669556 -0.000003 0.000002 -1.471660 65.022738 -7.192399 -1.676511 25.457514 7.354848 -0.000887 
52.164104 -4.896110 57.709099 14.538611 -2.082437 4.068717 2.142015 0.560802 -0.962261 8.296568 1.075459 -1.949047 9.941383 1.052046 -1.961794 -1.632505 -4.951909 0.061891 -2.135517 2.841668 0.984475 2.462491 -52.682280 3.820556 -47.577592 -124.752818 -78.686013 -0.000002 -0.000001 0.000001 86.023145 0.920353 -4.370023 -0.000007 0.000007 -3.000001 -5.000221 -7.998811 0.000178 -3.848960 41.015518 2.502032 -40.911570 128.320840 65.374268 0.000000 0.000006 0.000007 79.417034 2.813717 2.793848 -0.000005 -0.000017 3.000011 -5.000200 7.998733 -0.000188 -93.766210 -171.789612 -0.631506 179.999991 -0.000006 -0.765004 108.086719 0.134426 -2.977393 0.000003 0.000002 1.335290 66.855346 7.026154 1.955355 25.456955 -7.355614 0.000001 -92.638675 178.039631 -0.136248 -0.000005 -0.000004 -0.855242 -70.024732 0.466967 2.673954 -0.000003 0.000002 -1.469730 65.027417 -7.191558 -1.678617 25.457512 7.354849 -0.000888 
52.164299 -4.883510 57.711597 14.444539 -2.102884 4.087423 2.135455 0.563106 -0.955691 8.283434 1.080522 -1.935972 9.928243 1.057260 -1.948777 -1.579527 -5.029028 0.024968 -2.064624 2.903507 0.956680 2.273981 -52.721257 3.586329 -47.508911 -124.824917 -78.591271 -0.000003 0.000000 -0.000005 85.839857 0.867617 -4.289156 -0.000006 0.000005 -3.000001 -5.000218 -7.998811 0.000180 -3.713210 40.985083 2.319703 -40.844442 128.347820 65.199825 -0.000001 0.000004 0.000009 79.250589 2.836118 2.748384 -0.000006 -0.000015 3.000011 -5.000199 7.998730 -0.000191 -93.691658 -171.731556 -0.636534 179.999991 -0.000005 -0.766001 108.083673 0.127266 -2.980252 0.000002 0.000002 1.334830 66.855183 7.025946 1.957224 25.456957 -7.355614 0.000001 -92.546884 178.062526 -0.136734 -0.000004 -0.000004 -0.855399 -69.966832 0.485360 2.678392 -0.000003 0.000002 -1.467800 65.032068 -7.190633 -1.680904 25.457517 7.354849 -0.000889 
